# xmcd
#
# Track frame offsets: 
#        182
#        16560
#        37395
#        54610
#        70290
#        89225
#        104495
#        125682
#        141082
#        159355
#        176607
#        193975
#        213755
#        230712
#        249425
#        267800
#        283497
#        302132
#        322077
#
# Disc length: 4529 seconds
#
# Revision: 2
# Processed by: cddbd v1.5.2PL0 Copyright (c) Steve Scherf et al.
# Submitted via: ExactAudioCopy v1.3
#
DISCID=2a11af13
DTITLE=Various Artist - Rap All Over - CD2
DYEAR=1996
DGENRE=Hip Hop
TTITLE0=DJ Dave - Gangsta's Paradise (Radio Mix)
TTITLE1=Tugçe San - Güneçten Sicak (Album Edit)
TTITLE2=Daddy K - Stand Up (Radio Edit)
TTITLE3=Heavy D and The Boyz - This Is Your Night
TTITLE4=Dede - Watcha Gonna Do (Album Edit)
TTITLE5=Shabba Ranks - Housecall (Album Edit)
TTITLE6=Gang Starr - Jazz Thing (From ''Mo'Better Blues'')
TTITLE7=Horn Of Plenty - Gonna Be Late
TTITLE8=Fugees - Temple (Album Version)
TTITLE9=Heavy O - Da Groove (All Nations Radio Mix)
TTITLE10=Neg' Marrons - La Monnaie
TTITLE11=Les Sages Poetes De La Rue - Qu'Est-Ce Que Qui Fait Marcher L
TTITLE11=es Sages
TTITLE12=Democrates D - Le Crime (Album Version)
TTITLE13=Menelik - Tranquille (Radio Version)
TTITLE14=NTM - La Fievre (Album Version)
TTITLE15=Reciprok - Balance Toi (Radio Mix)
TTITLE16=Sléo - Je Lance Les Des (Album Edit)
TTITLE17=Osdorp Posse - Zo Simpel (Album Version)
TTITLE18=Die Fantastischen Vier - Sie Ist Weg (Video Version)
EXTD=
EXTT0=
EXTT1=
EXTT2=
EXTT3=
EXTT4=
EXTT5=
EXTT6=
EXTT7=
EXTT8=
EXTT9=
EXTT10=
EXTT11=
EXTT12=
EXTT13=
EXTT14=
EXTT15=
EXTT16=
EXTT17=
EXTT18=
PLAYORDER=
